<?xml version="1.0" encoding="iso-8859-1"?>
<!-- Generator: Adobe Illustrator 19.0.0, SVG Export Plug-In . SVG Version: 6.00 Build 0)  -->
<svg version="1.1" id="Capa_1" xmlns="http://www.w3.org/2000/svg" xmlns:xlink="http://www.w3.org/1999/xlink" x="0px" y="0px"
	 viewBox="0 0 58 58" style="enable-background:new 0 0 58 58;" xml:space="preserve">
<path style="fill:#9777A8;" d="M46.486,0.01l-4.791,0.599c-0.426,0.053-0.793,0.315-0.981,0.701
	c-0.785,1.606-3.16,5.986-6.839,8.527c-2.922,2.018-6.828,2.018-9.75,0c-3.679-2.541-6.054-6.92-6.839-8.527
	c-0.188-0.386-0.555-0.647-0.981-0.701L11.514,0.01c-1.018-0.127-1.759,0.939-1.28,1.847C12.825,6.768,17.897,20.028,9,25v33h20h20
	V25c-8.897-4.972-3.825-18.232-1.233-23.143C48.246,0.949,47.505-0.117,46.486,0.01z"/>
<path style="fill:#FFFFFF;" d="M35.786,32h-2.143c-2.402,0-4.214-1.72-4.214-4s1.812-4,4.214-4h2.143C38.188,24,40,25.72,40,28
	S38.188,32,35.786,32z M33.643,26c-1.101,0-2.214,0.687-2.214,2s1.114,2,2.214,2h2.143C36.886,30,38,29.313,38,28s-1.114-2-2.214-2
	H33.643z"/>
<path style="fill:#FFFFFF;" d="M35.786,38h-2.143c-2.402,0-4.214-1.72-4.214-4s1.812-4,4.214-4h2.143C38.188,30,40,31.72,40,34
	S38.188,38,35.786,38z M33.643,32c-1.101,0-2.214,0.687-2.214,2s1.114,2,2.214,2h2.143C36.886,36,38,35.313,38,34s-1.114-2-2.214-2
	H33.643z"/>
<path style="fill:#FFFFFF;" d="M24.357,32h-2.143C19.812,32,18,30.28,18,28s1.812-4,4.214-4h2.143c2.402,0,4.214,1.72,4.214,4
	S26.759,32,24.357,32z M22.214,26C21.114,26,20,26.687,20,28s1.114,2,2.214,2h2.143c1.101,0,2.214-0.687,2.214-2s-1.114-2-2.214-2
	H22.214z"/>
<path style="fill:#FFFFFF;" d="M24.357,38h-2.143C19.812,38,18,36.28,18,34s1.812-4,4.214-4h2.143c2.402,0,4.214,1.72,4.214,4
	S26.759,38,24.357,38z M22.214,32C21.114,32,20,32.687,20,34s1.114,2,2.214,2h2.143c1.101,0,2.214-0.687,2.214-2s-1.114-2-2.214-2
	H22.214z"/>
<path style="fill:#F18D46;" d="M9,25v33h5V16.923C13.783,20.118,12.436,23.08,9,25z"/>
<path style="fill:#F18D46;" d="M44.005,17H44v41h5V25C45.592,23.096,44.238,20.166,44.005,17z"/>
<path style="fill:#894B9D;" d="M33.875,9.836c-2.922,2.018-6.828,2.018-9.75,0c-3.115-2.151-5.291-5.615-6.363-7.603
	c3.106,1.525,7.215,2.463,11.738,2.463c3.905,0,7.499-0.701,10.41-1.872C38.752,4.855,36.7,7.886,33.875,9.836z"/>
<g>
</g>
<g>
</g>
<g>
</g>
<g>
</g>
<g>
</g>
<g>
</g>
<g>
</g>
<g>
</g>
<g>
</g>
<g>
</g>
<g>
</g>
<g>
</g>
<g>
</g>
<g>
</g>
<g>
</g>
</svg>
